<svg width="256" height="256" viewBox="0 0 120 120" xmlns="http://www.w3.org/2000/svg">
  <defs>
    <!-- Rich fondue gradient -->
    <linearGradient id="fondue-gold" x1="0%" y1="0%" x2="100%" y2="100%">
      <stop offset="0%" stop-color="#FFE5A0"/>
      <stop offset="30%" stop-color="#F4A261"/>
      <stop offset="70%" stop-color="#E07A5F"/>
      <stop offset="100%" stop-color="#C65D4A"/>
    </linearGradient>

    <!-- Drip gradient -->
    <linearGradient id="drip" x1="0%" y1="0%" x2="0%" y2="100%">
      <stop offset="0%" stop-color="#F4A261"/>
      <stop offset="100%" stop-color="#D35C3E"/>
    </linearGradient>

    <!-- Fork metallic gradient -->
    <linearGradient id="fork-metal" x1="0%" y1="0%" x2="100%" y2="0%">
      <stop offset="0%" stop-color="#C0C0C0"/>
      <stop offset="30%" stop-color="#E8E8E8"/>
      <stop offset="50%" stop-color="#FFFFFF"/>
      <stop offset="70%" stop-color="#E8E8E8"/>
      <stop offset="100%" stop-color="#A0A0A0"/>
    </linearGradient>

    <!-- Glossy shine -->
    <linearGradient id="shine" x1="0%" y1="0%" x2="0%" y2="100%">
      <stop offset="0%" stop-color="#FFF" stop-opacity="0.7"/>
      <stop offset="100%" stop-color="#FFF" stop-opacity="0"/>
    </linearGradient>

    <!-- Drop shadow -->
    <filter id="shadow" x="-30%" y="-30%" width="160%" height="160%">
      <feDropShadow dx="0" dy="4" stdDeviation="3" flood-color="#C65D4A" flood-opacity="0.4"/>
    </filter>

    <!-- Glow for fondue -->
    <filter id="glow">
      <feGaussianBlur stdDeviation="2" result="blur"/>
      <feMerge>
        <feMergeNode in="blur"/>
        <feMergeNode in="SourceGraphic"/>
      </feMerge>
    </filter>
  </defs>

  <!-- Fondue Fork (behind letters) -->
  <g transform="translate(85, 15) rotate(25)">
    <!-- Fork handle -->
    <rect x="-3" y="0" width="6" height="45" rx="2" fill="url(#fork-metal)" opacity="0.9"/>
    <!-- Fork neck -->
    <rect x="-2" y="45" width="4" height="15" fill="url(#fork-metal)" opacity="0.9"/>
    <!-- Fork tines -->
    <rect x="-6" y="60" width="2" height="20" rx="1" fill="url(#fork-metal)" opacity="0.9"/>
    <rect x="-1" y="60" width="2" height="22" rx="1" fill="url(#fork-metal)" opacity="0.9"/>
    <rect x="4" y="60" width="2" height="20" rx="1" fill="url(#fork-metal)" opacity="0.9"/>
  </g>

  <!-- Elegant "F" - Serif style -->
  <g filter="url(#shadow)">
    <text x="18" y="82"
          font-family="Georgia, 'Times New Roman', serif"
          font-size="72"
          font-weight="400"
          font-style="italic"
          fill="url(#fondue-gold)">F</text>
  </g>

  <!-- Elegant "d" - Serif style -->
  <g filter="url(#shadow)">
    <text x="52" y="82"
          font-family="Georgia, 'Times New Roman', serif"
          font-size="58"
          font-weight="400"
          font-style="italic"
          fill="url(#fondue-gold)">d</text>
  </g>

  <!-- Fondue drips from letters -->
  <g fill="url(#drip)">
    <!-- Drip from F crossbar -->
    <ellipse cx="38" cy="52" rx="4" ry="5"/>
    <path d="M38 57 Q38 70 36 80 Q38 84 40 80 Q38 70 38 57">
      <animate attributeName="d"
               values="M38 57 Q38 70 36 80 Q38 84 40 80 Q38 70 38 57;
                       M38 57 Q38 75 35 88 Q38 93 41 88 Q38 75 38 57;
                       M38 57 Q38 70 36 80 Q38 84 40 80 Q38 70 38 57"
               dur="2.5s" repeatCount="indefinite"/>
    </path>

    <!-- Drip from F stem bottom -->
    <ellipse cx="28" cy="88" rx="3" ry="4"/>
    <path d="M28 92 Q28 100 27 106 Q28 109 29 106 Q28 100 28 92">
      <animate attributeName="d"
               values="M28 92 Q28 100 27 106 Q28 109 29 106 Q28 100 28 92;
                       M28 92 Q28 105 26 113 Q28 117 30 113 Q28 105 28 92;
                       M28 92 Q28 100 27 106 Q28 109 29 106 Q28 100 28 92"
               dur="2s" repeatCount="indefinite"/>
    </path>

    <!-- Drip from d -->
    <ellipse cx="85" cy="88" rx="3" ry="4"/>
    <path d="M85 92 Q85 98 84 103 Q85 106 86 103 Q85 98 85 92">
      <animate attributeName="d"
               values="M85 92 Q85 98 84 103 Q85 106 86 103 Q85 98 85 92;
                       M85 92 Q85 103 83 110 Q85 114 87 110 Q85 103 85 92;
                       M85 92 Q85 98 84 103 Q85 106 86 103 Q85 98 85 92"
               dur="1.8s" repeatCount="indefinite"/>
    </path>
  </g>

  <!-- Shine highlights -->
  <ellipse cx="30" cy="35" rx="6" ry="3" fill="url(#shine)" opacity="0.5" transform="rotate(-15, 30, 35)"/>
  <ellipse cx="68" cy="50" rx="4" ry="2" fill="url(#shine)" opacity="0.4" transform="rotate(-10, 68, 50)"/>
</svg>
